<svg fill="none" height="50" viewBox="0 0 140 50" width="140" xmlns="http://www.w3.org/2000/svg"><g clip-rule="evenodd" fill-rule="evenodd"><path d="m18.6262 33.9642v3.4017c0 .0194-.0158.0353-.0353.0353h-1.5556c-.0195 0-.0353-.0159-.0353-.0353v-9.014c.0001-.0194.0159-.0352.0353-.0352l2.7027-.0006c.5377-.0002 1.3911-.0008 1.8525.1358.0581.0171.1152.037.1706.059.0563.0223.111.047.1632.0735.0541.0274.1064.057.1564.0883.0514.0321.1015.0667.1497.1033.0482.0364.0962.0763.1431.1188.047.0425.0925.0872.1358.1333.0448.0475.0877.0972.1287.1482.0417.0519.0822.1064.1211.1628.0435.063.0836.1279.1199.1941.0374.0677.0716.1379.1026.2095.0299.0694.0567.1399.0804.2108.0246.0743.0462.1493.0647.2246.0184.0745.034.1493.0468.2237.0131.0764.0241.1549.0324.2346l.0001.001c.0082.0756.0141.152.0179.2278.0041.0813.0061.1618.0061.2413 0 .0601-.0012.1219-.0034.1849-.0022.0606-.0056.1204-.0101.1779-.0046.0596-.0108.121-.0187.1838-.0077.0609-.0167.1203-.0267.1771-.0103.058-.0227.1177-.0371.1783-.014.0584-.0296.1155-.0463.1704-.017.0557-.0366.1119-.0582.168l-.0007.0022c-.0214.0557-.0447.1098-.0694.1618-.0208.0433-.0429.0876-.0665.1318l-.0008.0017c-.0226.0422-.0464.0843-.0714.1259-.0238.0397-.0485.0785-.0737.1163l-.0015.0025c-.0256.038-.0525.0757-.0803.1126-.0281.0371-.058.0744-.0894.1113-.0302.0352-.0617.0698-.0942.1032-.033.0338-.0674.0669-.1031.0989-.0348.0311-.0709.0613-.1079.0899l-.1055.0784c-.0331.0234-.068.047-.1046.0704l-.1065.0646c-.033.0189-.0684.0379-.1053.0563-.0336.0169-.0685.0333-.1045.049l-.0014.0005c-.0361.0158-.0721.0304-.1073.0434-.0364.0134-.0726.0257-.1084.0367-.0329.0101-.0673.0196-.1021.028l-.004.0011c-.0643.0141-.1309.0271-.1988.0385-.0694.0117-.1406.022-.2122.0308-.0686.0085-.1408.0163-.2151.023l-.2168.0167-.2137.0108-.223.0069-.2113.0031zm36.4879 1.2209 2.995-6.7954c.0051-.0131.0179-.0224.0328-.0224h1.7446c.0195 0 .0353.0159.0353.0353v8.9128c0 .0195-.0158.0353-.0353.0353h-1.4862c-.0183 0-.0339-.0142-.0352-.0326-.0175-.2291-.021-.9848-.0185-1.8881.0025-.9022.0112-1.9519.0178-2.7708l.0013-.1696c.004-.5086.0072-.9104.0071-1.1028l-.0004-.3468-2.4497 6.2856c-.0045.0146-.0179.0251-.0338.0251h-1.5497c-.014-.0001-.0273-.0086-.0327-.0225l-2.4508-6.2886-.0003.3468c0 .133.002.3281.005.5669l.0128.845c.0256 1.6329.0627 3.9991-.0076 4.5219-.0023.0175-.0172.0308-.0349.0308l-1.4889-.0001c-.0195 0-.0353-.0158-.0353-.0353v-8.913c0-.0194.0158-.0353.0353-.0353h1.7445c.0135.0001.0265.008.0323.0211l2.9956 6.7967zm-36.4879-5.3582v2.6272c.4031 0 .8065.0032 1.2095-.003l.1741-.0059.1795-.0106c.0646-.0047.1289-.0109.1911-.0182.0564-.0068.1134-.0152.1692-.0251.06-.0106.1163-.0232.1669-.0373.0478-.0133.0924-.0286.1317-.0457.0553-.024.108-.0519.1572-.0827.0492-.031.0959-.0656.1393-.1036.022-.0192.0432-.0392.0628-.0593.0198-.0203.039-.0417.0574-.0636l.0013-.0017c.0194-.0235.0379-.0473.0546-.0708.0168-.0235.0331-.0485.0485-.074.016-.0266.0315-.0544.046-.0831.014-.0277.0272-.0563.0392-.0854.0122-.0294.0233-.0593.033-.0889.01-.0302.019-.0608.0266-.0915l.0195-.0892.0136-.0904.0083-.0945.0027-.0955c0-.0373-.0011-.0747-.0034-.1117-.0022-.0368-.0058-.0731-.0104-.1083-.0046-.0364-.0109-.073-.0185-.1094-.0073-.0356-.0161-.0708-.0261-.1049-.0102-.0355-.0224-.0708-.0361-.1055-.0137-.0343-.0291-.0683-.0459-.1011-.017-.0333-.0362-.0666-.0574-.0992-.0203-.0316-.0427-.0624-.0666-.0922-.0215-.0266-.044-.0526-.0675-.0773-.0238-.0251-.0482-.0489-.0724-.0706-.0244-.0219-.0499-.043-.0761-.0626-.0264-.0196-.0528-.0379-.0798-.0546l-.0026-.0014c-.0284-.0177-.0573-.0339-.086-.0482-.0295-.0148-.06-.0284-.091-.0405-.0307-.012-.0629-.023-.0957-.0327-.0324-.0093-.0659-.0178-.1003-.0248-.0777-.016-.1633-.028-.2526-.0368s-.1839-.0148-.2793-.0184c-.1891-.0076-.3818-.0071-.5489-.0068l-.9154-.0001zm18.8492 5.5375h-3.5401l-.7207 2.0136c-.0049.0135-.0179.0233-.0332.0233l-1.7685-.0001c-.0047.0002-.0096-.0004-.0144-.0023-.0181-.0068-.0273-.0273-.0204-.0454l3.3678-8.845c.0048-.0139.018-.024.0335-.024h1.8083c.014.0001.0273.0087.0328.0225l3.4754 8.8463.0024.0128c0 .0193-.0158.0352-.0352.0352l-1.8055.0001c-.0142 0-.0277-.0088-.0329-.0229zm-.4952-1.2559-1.3105-3.5962-1.2698 3.6137zm33.9619-4.2816h-2.5788c-.0194 0-.0352-.0158-.0352-.0353v-1.4394c0-.0195.0158-.0353.0352-.0353h6.9027c.0195 0 .0353.0158.0353.0353v1.4394c0 .0195-.0158.0353-.0353.0353h-2.5663v7.539c0 .0194-.0158.0353-.0353.0353h-1.687c-.0195 0-.0353-.0159-.0353-.0353zm5.3012 7.539v-9.0136c0-.0195.0158-.0353.0352-.0353h1.8078c.0194 0 .0352.0158.0352.0353v9.0136c0 .0194-.0158.0353-.0352.0353h-1.8078c-.0194 0-.0352-.0159-.0352-.0353zm-47.8765-3.4898 2.3236 3.4703c.0037.0057.006.0123.006.0196 0 .0193-.0159.0352-.0352.0352l-1.536.0002c-.0113 0-.0225-.0055-.0292-.0156l-2.291-3.4216h-1.0351v3.4017c0 .0194-.0158.0352-.0352.0352h-1.5557c-.0194 0-.0352-.0158-.0352-.0352v-9.014c.0001-.0194.0159-.0352.0352-.0352l2.7028-.0006c.5377-.0003 1.3911-.0008 1.8524.1358.0582.0171.1152.037.1707.059.0562.0222.111.047.1632.0735.0541.0273.1064.057.1564.0882.0514.0322.1015.0668.1497.1034.0482.0364.0962.0763.143.1187.0471.0426.0926.0873.1359.1333.0448.0476.0877.0973.1287.1483.0417.0519.0822.1064.1211.1628.0434.0629.0835.1279.1198.194.0374.0678.0717.138.1026.2096.03.0694.0568.1399.0805.2108.0246.0742.0461.1493.0647.2246.0183.0744.034.1493.0468.2237.0131.0764.0241.1549.0324.2346l.0001.0009c.0082.0757.014.152.0179.2279.0041.0813.0061.1618.0061.2412 0 .0601-.0012.122-.0034.185-.0022.0606-.0057.1203-.0101.1779-.0046.0596-.0109.1209-.0187.1838-.0077.0609-.0167.1203-.0268.1771-.0102.058-.0226.1177-.0371.1783-.014.0584-.0295.1155-.0462.1703-.0171.0558-.0366.112-.0582.1681l-.0007.0022c-.0214.0557-.0447.1098-.0694.1618-.0208.0433-.0429.0876-.0665.1318l-.0009.0017c-.0225.0421-.0463.0843-.0713.1258-.0238.0398-.0485.0786-.0737.1163l-.0015.0026c-.0256.038-.0525.0757-.0804.1126-.028.0371-.0579.0743-.0894.1113-.0301.0352-.0617.0697-.0941.1031-.033.0339-.0674.067-.1031.099-.0348.031-.0709.0613-.1079.0898l-.1055.0785c-.0331.0234-.068.047-.1046.0704l-.1065.0645c-.0325.0187-.0674.0375-.1037.0556l-.0015.0008c-.0342.0172-.0697.0338-.1057.0496-.0352.0153-.0709.0298-.1063.0428-.0343.0127-.0694.0247-.105.0357l-.0019.0007c-.0332.0102-.0676.0198-.1027.0282zm-2.5969-4.0492v2.6272c.4031 0 .8065.0032 1.2095-.003l.1742-.0059.1794-.0106c.0646-.0047.129-.0109.1911-.0182.0565-.0068.1134-.0152.1693-.0251.06-.0106.1163-.0232.1669-.0373.0478-.0133.0923-.0286.1316-.0457.0554-.024.1081-.0519.1573-.0827.0492-.031.0959-.0656.1393-.1036.022-.0192.0431-.0392.0628-.0593.0198-.0203.039-.0417.0573-.0636l.0014-.0017c.0195-.0235.0379-.0473.0547-.0708.0167-.0235.033-.0485.0484-.074.0161-.0266.0315-.0544.046-.0831.014-.0277.0272-.0563.0392-.0854.0122-.0294.0233-.0593.0331-.0889.0099-.0302.0189-.0608.0266-.0915l.0194-.0892.0136-.0904.0083-.0945.0027-.0955c0-.0373-.0011-.0747-.0034-.1117-.0022-.0368-.0057-.0731-.0104-.1083-.0046-.0364-.0109-.073-.0184-.1094-.0074-.0356-.0162-.0708-.0261-.1049-.0103-.0355-.0225-.0708-.0362-.1055-.0136-.0343-.0291-.0683-.0459-.1011-.0169-.0333-.0362-.0666-.0573-.0992-.0204-.0316-.0428-.0624-.0667-.0922-.0214-.0266-.044-.0526-.0675-.0773-.0238-.0251-.0482-.0489-.0724-.0706-.0244-.0219-.0499-.043-.0761-.0626-.0264-.0196-.0528-.0379-.0798-.0546l-.0025-.0014c-.0285-.0177-.0574-.0339-.0861-.0482-.0294-.0148-.06-.0284-.0909-.0405-.0308-.012-.0629-.023-.0958-.0327-.0324-.0093-.0659-.0178-.1003-.0248-.0777-.016-.1633-.028-.2526-.0368s-.1838-.0148-.2793-.0184c-.1891-.0076-.3818-.0071-.5489-.0068l-.9154-.0001zm41.1505 5.5375h-3.54l-.7207 2.0136c-.005.0135-.018.0233-.0332.0233l-1.7685-.0001c-.0047.0002-.0097-.0004-.0144-.0023-.0181-.0068-.0273-.0273-.0205-.0454l3.3679-8.845c.0047-.0139.018-.024.0335-.024h1.8083c.014.0001.0273.0087.0328.0225l3.4754 8.8463.0024.0128c0 .0193-.0158.0352-.0352.0352l-1.8055.0001c-.0142 0-.0277-.0088-.0329-.0229zm-.4951-1.2559-1.3105-3.5962-1.2698 3.6137zm-19.1029-.3946h-3.2406c-.0195 0-.0353-.0158-.0353-.0353v-1.272c.0001-.0194.0159-.0352.0353-.0352l5.0176-.0001c.0194-.0012.0362.0136.0374.033.0057.0913.0109.1786.0139.2698l.0011.1083c0 .3086-.0303.6106-.0881.9024-.0592.2996-.1475.5889-.2615.8642-.1161.2807-.2596.5477-.4266.7976-.1689.2526-.362.4877-.5759.7017s-.4489.4073-.7012.5761c-.2497.1672-.5168.3107-.7974.427-.2752.1141-.5643.2024-.8636.2616-.2916.0578-.5933.0882-.9016.0882-.3084 0-.6101-.0304-.9017-.0882-.2993-.0592-.5885-.1475-.8637-.2616-.2807-.1163-.5478-.2598-.7975-.427-.2523-.1688-.4873-.3621-.7012-.5761s-.407-.4491-.5758-.7016c-.1671-.2499-.3105-.5171-.4267-.7979-.114-.2755-.2023-.5648-.2615-.8643-.0578-.2917-.0881-.5936-.0881-.9021s.0303-.6104.0881-.9022c.0592-.2994.1475-.5887.2615-.8641.1162-.2808.2596-.548.4267-.7979.1688-.2524.3619-.4875.5758-.7015.2139-.2141.4489-.4073.7012-.5763.2493-.1667.5158-.3101.7958-.4261l.0015-.0007c.275-.1141.5642-.2024.8636-.2616.2917-.0578.5935-.0882.902-.0882.2506 0 .4981.0203.7399.0595l.001.0001c.2463.04.4873.0997.7204.1775.235.0785.463.1759.6811.2902l.0025.0012c.2198.1155.4303.2488.6286.3978.1985.1491.3851.3144.5572.4935.1709.1779.3286.3704.4701.5757.1332.193.2526.3977.3561.612.1017.2105.1883.4313.2581.6601l.0016.0104c0 .0194-.0159.0352-.0352.0352l-1.7334.0001c-.0129 0-.0253-.007-.0315-.0193-.0597-.1179-.1268-.2308-.2003-.3377-.0747-.1085-.1562-.2116-.2433-.3079-.0913-.101-.1899-.1955-.2942-.2826s-.2147-.167-.3301-.2389c-.1155-.0717-.236-.1358-.3607-.1909-.1235-.055-.2516-.1015-.3829-.1389-.1301-.037-.2635-.0656-.3989-.0844-.133-.0187-.2688-.0283-.4063-.0283-.1959 0-.3875.0193-.5724.056-.1901.0376-.374.0938-.549.1663-.1786.074-.3487.1653-.5072.2714-.1602.1071-.3096.23-.4452.3657-.1358.1359-.2586.2852-.3656.4456-.106.1585-.1971.3286-.2712.5074-.0725.1751-.1286.3589-.1662.5492-.0367.185-.0559.3768-.0559.5727 0 .196.0192.3877.0559.5728.0376.1902.0937.3741.1662.5492.074.1788.1652.3489.2713.5076.107.1602.2297.3096.3655.4454.1357.1359.285.2586.4452.3657.1585.1061.3286.1974.5072.2714.175.0725.3589.1287.549.1664.1849.0367.3765.0559.5724.0559.147 0 .2923-.0111.4345-.0324.1447-.0216.2867-.0541.4246-.0964.1402-.0427.2761-.096.4063-.1583.1304-.0624.2561-.1347.3755-.2154l.0027-.0021c.1208-.0817.2355-.1725.3427-.2711.1069-.0983.2068-.2048.2981-.3181.0902-.112.1727-.2312.2461-.3564l.0011-.0021c.0728-.1247.1371-.2556.1914-.3916l.0636-.1591zm38.6748-5.0216c.2198.1154.4303.2488.6286.3978.1985.1491.3851.3143.5572.4934.1709.1779.3286.3705.4701.5757.1333.1931.2526.3978.3561.612.1017.2106.1883.4314.2581.6601l.0016.0105c0 .0194-.0158.0352-.0352.0352l-1.7334.0001c-.0129 0-.0253-.0071-.0315-.0194-.0596-.1179-.1268-.2307-.2003-.3376-.0746-.1086-.1562-.2116-.2433-.3079-.0913-.101-.1899-.1955-.2942-.2826-.1042-.0872-.2147-.1671-.3301-.239-.1154-.0717-.236-.1357-.3607-.1909-.1235-.0549-.2516-.1014-.3829-.1389-.1301-.037-.2635-.0655-.3989-.0844-.133-.0186-.2688-.0282-.4063-.0282-.1958 0-.3875.0192-.5724.056-.1901.0376-.374.0938-.549.1663-.1786.074-.3486.1653-.5072.2714-.1601.1071-.3095.2299-.4452.3657-.1358.1358-.2586.2852-.3656.4456-.1059.1585-.1971.3285-.2712.5074-.0724.175-.1286.3589-.1662.5491-.0367.1851-.0559.3768-.0559.5728 0 .1959.0192.3877.0559.5727.0376.1903.0938.3742.1662.5493.074.1787.1653.3489.2713.5075.107.1603.2297.3096.3655.4455.1358.1358.2851.2586.4452.3657.1586.1061.3286.1974.5072.2714.175.0725.3589.1287.549.1663.1849.0367.3766.056.5724.056.1338 0 .2661-.0091.3957-.0267.1321-.018.2622-.0449.3889-.0801.1276-.0355.2531-.0798.3747-.1323.1216-.0523.2396-.1129.3524-.181.1131-.068.222-.1442.3256-.2273.1027-.0827.2004-.1727.2919-.2692.0871-.092.1688-.1903.244-.2939.0746-.1026.1428-.2106.2038-.3224.0058-.0115.0178-.0194.0314-.0194l1.7494.0002.0108.0017c.0185.0059.0286.0258.0227.0442-.0726.224-.1616.4399-.265.6459-.1053.2095-.2258.4096-.3597.5983-.1423.2005-.2999.3886-.4705.5623-.1718.1749-.3573.3361-.5543.4814-.1965.1449-.4051.2749-.6232.3875-.2166.1119-.4429.2072-.6763.284-.2304.0757-.4683.134-.7115.1729-.2391.0383-.4834.0581-.7307.0581-.3083 0-.61-.0303-.9016-.0881-.2993-.0592-.5885-.1476-.8638-.2617-.2806-.1162-.5477-.2598-.7975-.427-.2523-.1688-.4872-.3621-.7011-.5761s-.4071-.4491-.5758-.7015c-.1671-.2499-.3106-.5172-.4268-.798-.114-.2754-.2023-.5648-.2615-.8642-.0577-.2918-.088-.5937-.088-.9022s.0303-.6104.088-.9021c.0592-.2995.1475-.5887.2615-.8642.1162-.2807.2597-.5479.4268-.7978.1687-.2525.3619-.4876.5758-.7016s.4488-.4072.7012-.5763c.2493-.1667.5158-.31.7957-.4261l.0015-.0007c.2751-.114.5643-.2024.8637-.2616.2917-.0578.5935-.0881.9019-.0881.2507 0 .4982.0202.74.0595l.0009.0001c.2464.0399.4874.0996.7204.1775.2351.0784.4631.1759.6811.2901l.0025.0013z" fill="#fff"/><path d="m112.688 16.6215c-2.038-.8625-4.225-1.315-6.437-1.3318-3.332-.0252-6.5959.9387-9.3801 2.7698s-4.9631 4.4471-6.2614 7.5173c-1.2982 3.0702-1.6574 6.4566-1.0322 9.7311.6253 3.2744 2.207 6.2898 4.545 8.6648 2.3381 2.375 5.3275 4.003 8.5907 4.6781 3.262.675 6.652.3669 9.74-.8856 3.087-1.2524 5.734-3.3928 7.606-6.1506 1.872-2.7577 2.885-6.009 2.91-9.3426.017-2.2134-.402-4.4084-1.233-6.4598-.832-2.0513-2.058-3.9187-3.611-5.4957-1.552-1.5769-3.4-2.8325-5.437-3.695zm-.719 1.6993c-1.814-.7681-3.762-1.1711-5.732-1.186-2.967-.0224-5.874.836-8.3531 2.4666-2.4794 1.6306-4.4199 3.9603-5.576 6.6943-1.1561 2.7341-1.476 5.7498-.9191 8.6658.5568 2.9159 1.9653 5.6012 4.0474 7.7162s4.7438 3.5648 7.6498 4.1659c2.906.6012 5.924.3268 8.674-.7885 2.749-1.1154 5.107-3.0215 6.774-5.4773 1.667-2.4559 2.568-5.3512 2.591-8.3198.015-1.9711-.359-3.9259-1.099-5.7526-.74-1.8268-1.832-3.4898-3.215-4.8941-1.382-1.4043-3.027-2.5224-4.842-3.2905z" fill="#e68d10"/><path d="m90.3521 8.29263c1.2948.7873 4.6431 3.00477 6.1061 8.15377 2.4274-1.4995 5.2278-2.4503 8.2268-2.6822-.814-3.2903-.782-7.04168.803-10.07024-.661.21019-3.858 2.64622-3.503 7.53184-.992-2.68801-3.0085-7.16536-5.6502-10.453339-.283 4.447399.2521 8.328909 1.0122 11.732839-.4917-1.0416-3.1471-4.34907-6.9949-4.21267z" fill="#e68d10"/><path d="m110.01 19.5373c1.187.2584 2.32.8689 3.15 1.6973.829.8284 1.288 1.8068 1.274 2.7199-.01.6809-.282 1.2895-.782 1.7486s-1.205.7483-2.027.8309c-.822.0825-1.722-.0452-2.589-.367-.866-.3218-1.658-.8233-2.277-1.4411-.619-.6177-1.036-1.324-1.199-2.0294-.163-.7055-.064-1.3785.284-1.9338.348-.5554.93-.9683 1.671-1.1864.742-.2181 1.61-.2316 2.495-.039z" fill="#e59002"/></g><path d="m93.5082 37.0602v-8.2862h1.9176v6.7236h4.155v1.5626z" fill="#fff"/><path d="m100.664 37.0602v-8.2862h1.917v8.2862z" fill="#fff"/><path d="m106.999 37.0602-3.575-8.2862h2.072l3.125 7.3392h-1.219l3.172-7.3392h1.906l-3.587 8.2862z" fill="#fff"/><path d="m114.935 32.1121h3.99v1.4915h-3.99zm.142 3.4092h4.511v1.5389h-6.416v-8.2862h6.262v1.5388h-4.357z" fill="#fff"/></svg>