<svg fill="none" height="120" viewBox="0 0 500 120" width="500" xmlns="http://www.w3.org/2000/svg" xmlns:xlink="http://www.w3.org/1999/xlink"><linearGradient id="a" gradientUnits="userSpaceOnUse" x1="249.433" x2="249.433" y1="-11.8738" y2="134.126"><stop offset="0" stop-color="#b5e1fa"/><stop offset=".244792" stop-color="#fff"/><stop offset=".286458" stop-color="#628ba2"/><stop offset=".427083" stop-color="#c3d2da"/><stop offset=".676472" stop-color="#8da1c9"/><stop offset=".760417" stop-color="#ddd0ff"/><stop offset=".786458" stop-color="#cea6e8"/><stop offset=".933616" stop-color="#bebebe"/></linearGradient><g fill="url(#a)"><path d="m0 23.5648v-.0652c0-3.4777.543387-6.6293 1.63016-9.4549 1.08678-2.8691 2.65173-5.3035 4.69487-7.30317 2.08661-2.04313 4.60797-3.60809 7.56397-4.69487 2.9995-1.086769 6.3902-1.630156 10.1722-1.630156h10.2374c3.782 0 7.151.543387 10.107 1.630156 2.9995 1.08678 5.5208 2.65174 7.564 4.69487 2.0866 1.99967 3.6733 4.43407 4.76 7.30317 1.0868 2.8256 1.6302 5.9772 1.6302 9.4549v.0652c0 3.5212-.5434 6.7163-1.6302 9.5854-1.0867 2.8256-2.6734 5.2599-4.76 7.3031-2.0432 1.9996-4.5645 3.5429-7.564 4.6296-2.956 1.0868-6.325 1.6302-10.107 1.6302h-10.2374c-3.782 0-7.1727-.5434-10.1722-1.6302-2.956-1.0867-5.47736-2.63-7.56397-4.6296-2.04314-2.0432-3.60809-4.4775-4.69487-7.3031-1.086773-2.8691-1.63016-6.0642-1.63016-9.5854zm9.91138 0c0 4.2602 1.21722 7.6726 3.65152 10.2374 2.4344 2.5213 5.9338 3.782 10.4983 3.782h10.2374c4.6079 0 8.1073-1.2607 10.4983-3.782 2.4343-2.5648 3.6515-5.9772 3.6515-10.2374v-.0652c0-4.2167-1.2172-7.5857-3.6515-10.107-2.391-2.5648-5.8904-3.84719-10.4983-3.84719h-10.2374c-4.5645 0-8.0639 1.28239-10.4983 3.84719-2.4343 2.5213-3.65152 5.8903-3.65152 10.107z"/><path d="m119.83 46.1262-9.129-14.2802h-18.5836v14.2802h-9.8462v-45.12284h28.7558c3.217 0 5.999.36951 8.347 1.10851 2.347.73901 4.282 1.80405 5.803 3.19512 1.565 1.3476 2.717 2.97776 3.456 4.89051.783 1.9127 1.174 4.0428 1.174 6.3902v.0652c0 3.3473-.783 6.2164-2.348 8.6073-1.565 2.3474-3.977 4.0862-7.238 5.2165l10.694 15.6495zm-27.7126-36.25476v13.49776h18.9096c2.913 0 5.108-.5217 6.586-1.565 1.522-1.0867 2.282-2.8039 2.282-5.1513v-.0652c0-2.3474-.76-4.0428-2.282-5.0861-1.478-1.0868-3.673-1.63016-6.586-1.63016z"/><path d="m154.546 46.1262v-45.12284h9.977v45.12284z"/><path d="m213.007.416504h9.846c3.825 0 7.173.434709 10.042 1.304126 2.912.82595 5.477 2.23876 7.694 4.23842l-5.673 7.30315c-1.521-1.3476-3.26-2.304-5.217-2.8691-1.956-.56513-4.238-.84769-6.846-.84769h-9.846c-4.739 0-8.369 1.28239-10.89 3.84719-2.521 2.5213-3.782 5.8903-3.782 10.107v.0652c0 2.0866.304 3.9993.913 5.7382.652 1.6953 1.587 3.1734 2.804 4.434 1.217 1.2172 2.717 2.1736 4.499 2.8691 1.782.6521 3.804.9781 6.064.9781h9.39c2.869 0 5.325-.413 7.368-1.2389 2.044-.826 3.369-2.1518 3.978-3.9776v-2.217h-12.846v-7.89h21.258v23.8655h-5.999l-.522-4.9556c-1.391 1.9561-3.26 3.369-5.608 4.2384-2.304.8694-5.064 1.3041-8.281 1.3041h-9.39c-3.651 0-6.933-.5434-9.846-1.6302-2.912-1.1302-5.39-2.6952-7.433-4.6948-2-2.0432-3.543-4.4775-4.63-7.3032-1.087-2.869-1.63-6.0424-1.63-9.5201v-.0652c0-3.4777.543-6.6293 1.63-9.4549 1.13-2.8257 2.739-5.2383 4.825-7.23796 2.087-2.04314 4.652-3.60809 7.695-4.69487 3.043-1.130243 6.52-1.695366 10.433-1.695366z"/><path d="m266.62 46.1262v-45.12284h9.976v45.12284z"/><path d="m343.86 1.00336h9.846v45.12284h-9.129l-31.625-30.0601v30.0601h-9.781v-45.12284h9.129l31.56 30.06014z"/><path d="m400.238 1.00336h10.368l23.866 45.12284h-10.694l-4.695-9.3245h-27.321l-4.695 9.3245h-10.694zm14.672 27.32154-9.455-17.8666-9.455 17.8666z"/><path d="m467.121 1.00336v35.66794h32.408v9.4549h-42.384v-45.12284z"/><path d="m98.354 73.4165h9.846c3.826 0 7.173.4347 10.042 1.3041 2.913.826 5.477 2.2388 7.694 4.2385l-5.673 7.3031c-1.521-1.3476-3.26-2.304-5.216-2.8691s-4.239-.8477-6.847-.8477h-9.846c-4.7383 0-8.3681 1.2824-10.8894 3.8472-2.5214 2.5213-3.782 5.8903-3.782 10.107v.0652c0 2.0866.3043 3.9992.9129 5.7382.652 1.695 1.5867 3.173 2.8039 4.434 1.2171 1.217 2.7169 2.174 4.4992 2.869 1.7823.652 3.8037.978 6.0642.978h9.3902c2.869 0 5.325-.413 7.368-1.239s3.369-2.152 3.977-3.977v-2.217h-12.845v-7.8903h21.257v23.8653h-5.999l-.522-4.955c-1.391 1.956-3.26 3.369-5.607 4.238-2.304.869-5.065 1.304-8.282 1.304h-9.3893c-3.6515 0-6.9336-.543-9.8461-1.63-2.9126-1.13-5.3904-2.695-7.4336-4.695-1.9996-2.043-3.5429-4.477-4.6296-7.303-1.0868-2.869-1.6302-6.043-1.6302-9.5202v-.0652c0-3.4777.5434-6.6293 1.6302-9.4549 1.1302-2.8257 2.7386-5.2383 4.8252-7.238 2.0866-2.0431 4.6514-3.6081 7.6944-4.6948 3.043-1.1303 6.5207-1.6954 10.433-1.6954z"/><path d="m171.92 74.0034h10.368l23.866 45.1226h-10.694l-4.695-9.324h-27.322l-4.695 9.324h-10.693zm14.672 27.3216-9.455-17.8667-9.455 17.8667z"/><path d="m257.843 98.9774 19.432-24.974h9.585v45.1226h-9.846v-29.9295l-16.497 21.5185h-5.347l-16.562-21.5185v29.9295h-9.781v-45.1226h9.52z"/><path d="m355.643 74.0034v8.9985h-32.342v9.1941h29.017v8.868h-29.017v9.064h32.342v8.998h-42.188v-45.1226z"/><path d="m417.806 86.849c-1.174-1.6519-2.608-2.8473-4.303-3.5863-1.652-.7825-3.782-1.1737-6.391-1.1737h-10.759c-2.478 0-4.39.3695-5.738 1.1085s-2.021 1.804-2.021 3.1951c0 1.0868.413 1.9997 1.239 2.7387.869.739 2.543 1.3258 5.02 1.7605l17.802 1.7606c2.434.3913 4.456 1.0433 6.064 1.9562 1.652.8694 2.956 1.9345 3.912 3.1951.957 1.2172 1.631 2.5653 2.022 4.0433s.587 2.999.587 4.564c0 4.043-1.522 7.281-4.565 9.716-2.999 2.391-7.259 3.586-12.78 3.586h-11.02c-5.043 0-9.216-.826-12.52-2.478-3.304-1.695-5.673-4.151-7.107-7.368l8.477-5.347c1.173 2.478 2.673 4.195 4.499 5.151 1.869.957 4.13 1.435 6.781 1.435h11.02c2.522 0 4.412-.413 5.673-1.239 1.261-.869 1.891-2.065 1.891-3.586 0-1.435-.478-2.543-1.434-3.326-.957-.782-2.456-1.348-4.5-1.695l-18.779-2.2174c-2.217-.3912-4.086-.978-5.608-1.7605-1.521-.7825-2.76-1.7171-3.717-2.8039-.913-1.0868-1.586-2.2822-2.021-3.5864-.435-1.3476-.652-2.7386-.652-4.1732 0-4.1732 1.543-7.4335 4.63-9.7809 3.086-2.3475 7.52-3.5212 13.302-3.5212h10.563c4.173 0 7.694.6303 10.564 1.891 2.912 1.2172 5.151 2.9995 6.716 5.3469z"/></g></svg>