<svg width="109" height="20" viewBox="0 0 109 20" fill="none" xmlns="http://www.w3.org/2000/svg">
<path d="M20.0762 15.6516V1.3866H24.0472V7.87011L28.7014 1.3866H33.3756L27.9379 8.34388L33.851 15.6516H28.842L24.0472 9.24599V15.6516H20.0762Z" fill="white"/>
<path d="M34.6816 15.6514V5.80609H38.2643V15.6514H34.6816Z" fill="white"/>
<path d="M41.1838 15.6517V5.80633H44.4652V7.80526C44.9272 7.02645 45.4763 6.44235 46.1125 6.05295C46.7286 5.68302 47.4786 5.49481 48.3559 5.49481C49.0188 5.49481 49.6081 5.59216 50.1238 5.78686C50.6327 6.00752 51.0479 6.30606 51.3626 6.68248C51.6506 7.0589 51.8448 7.46128 51.9385 7.88314C52.0524 8.42181 52.1126 9.13571 52.1126 10.0183V15.6517H48.5099V10.3818C48.5099 9.58352 48.3827 9.0124 48.1215 8.66843C47.8603 8.31148 47.4384 8.12976 46.8491 8.12976C46.1125 8.12976 45.5701 8.39585 45.2219 8.92803C44.8803 9.46021 44.7129 10.3234 44.7129 11.5175V15.6517H41.1838Z" fill="white"/>
<path d="M65.5259 5.80635V15.6322C65.5259 17.1184 65.0571 18.2152 64.1263 18.9291C63.6776 19.2796 63.0883 19.5457 62.3584 19.7274C61.6285 19.9091 60.7713 20 59.7869 20C58.1864 20 56.9409 19.7144 56.0569 19.1433C55.173 18.5657 54.6975 17.7609 54.6372 16.7355H58.3471C58.4141 17.047 58.5949 17.2807 58.8829 17.4429C59.1775 17.6182 59.5726 17.7025 60.0615 17.7025C60.8249 17.7025 61.3606 17.5273 61.6619 17.1704C61.9499 16.8134 62.0972 16.0541 62.0972 14.8989V14.0032C61.7155 14.6263 61.2334 15.0871 60.6575 15.3791C60.0615 15.6841 59.365 15.8399 58.5748 15.8399C57.2355 15.8399 56.1574 15.3661 55.3471 14.4251C54.952 13.9643 54.6506 13.4191 54.443 12.7896C54.2354 12.1601 54.1283 11.4591 54.1283 10.6674C54.1283 9.09679 54.5569 7.83772 55.4073 6.89667C55.8292 6.42939 56.3248 6.07893 56.9007 5.85178C57.4766 5.61814 58.1128 5.50781 58.8293 5.50781C59.586 5.50781 60.2423 5.66357 60.7981 5.9686C61.3472 6.25416 61.8227 6.73442 62.2245 7.40938V5.80635H65.5259ZM62.3718 10.7063C62.3718 9.94698 62.1642 9.3499 61.7557 8.91507C61.3137 8.48672 60.7311 8.27256 60.0079 8.27256C59.2847 8.27256 58.7021 8.48672 58.2601 8.91507C57.8315 9.3499 57.6172 9.94698 57.6172 10.7063C57.6172 11.4721 57.8315 12.0627 58.2601 12.4781C58.6954 12.9194 59.278 13.1401 60.0079 13.1401C60.7244 13.1401 61.3003 12.9194 61.7356 12.4781C62.1642 12.0692 62.3718 11.4786 62.3718 10.7063Z" fill="white"/>
<path d="M68.2247 15.6516V0.542847H71.7471V5.84518C71.7471 6.09829 71.7337 6.42928 71.707 6.83166C71.6869 7.18212 71.6601 7.44821 71.6266 7.62993C72.0753 6.89656 72.6043 6.35789 73.2137 6.01392C73.8298 5.66995 74.5597 5.49472 75.3968 5.49472C76.0597 5.49472 76.649 5.59207 77.1647 5.78677C77.6736 6.00743 78.0888 6.30597 78.4035 6.68239C78.6915 7.05881 78.8857 7.46119 78.9794 7.88304C79.0933 8.42171 79.1535 9.13561 79.1535 10.0183V15.6516H75.5508V10.3817C75.5508 9.58342 75.4236 9.0123 75.1624 8.66833C74.9012 8.31138 74.4793 8.12966 73.89 8.12966C73.1534 8.12966 72.611 8.39575 72.2628 8.92793C71.9212 9.46011 71.7538 10.3233 71.7538 11.5174V15.6516H68.2247Z" fill="white"/>
<path d="M81.5908 15.6514V5.80609H85.1735V15.6514H81.5908Z" fill="white"/>
<path d="M88.1873 15.6516V0.542847H91.79V15.6516H88.1873Z" fill="white"/>
<path d="M94.6157 15.6516V0.542847H98.2185V15.6516H94.6157Z" fill="white"/>
<path d="M100.006 14.834L100.75 12.186C101.272 12.6338 101.848 12.9713 102.478 13.1985C103.1 13.4386 103.73 13.5554 104.366 13.5554C104.821 13.5554 105.163 13.484 105.391 13.3348C105.625 13.1985 105.745 13.0038 105.745 12.7442C105.745 12.3093 105.27 11.9848 104.326 11.7707C103.998 11.6993 103.75 11.6409 103.582 11.5889C102.491 11.2774 101.714 10.8945 101.259 10.4467C100.763 9.98592 100.515 9.38884 100.515 8.65546C100.515 7.70792 100.89 6.9421 101.634 6.36449C102.35 5.79337 103.355 5.50781 104.64 5.50781C105.263 5.50781 105.926 5.5792 106.629 5.72198C107.219 5.8388 107.908 6.06595 108.692 6.40992L107.949 8.80473C107.466 8.48672 106.978 8.24659 106.489 8.09083C106.027 7.92858 105.538 7.8507 105.029 7.8507C104.614 7.8507 104.299 7.9156 104.091 8.03242C103.89 8.14924 103.79 8.32447 103.79 8.5646C103.79 8.90209 104.265 9.19414 105.21 9.44076C105.518 9.53162 105.678 9.57705 105.685 9.57705C106.917 9.91453 107.781 10.3169 108.277 10.7777C108.759 11.2644 109 11.894 109 12.6728C109 13.6787 108.598 14.49 107.801 15.1065C106.984 15.7296 105.926 16.0411 104.634 16.0411C103.736 16.0411 102.906 15.9437 102.156 15.7426C101.406 15.5414 100.69 15.2363 100.006 14.834Z" fill="white"/>
<path d="M3.82374 7.37673C1.90183 6.90945 0.294649 3.48921 0.294649 3.48921C0.180807 3.48921 0.133931 3.48272 0 3.48921V12.9776C0.120538 12.9841 0.160718 12.9776 0.294649 12.9776C0.294649 12.9776 2.06924 9.46002 3.82374 9.09009C4.55367 8.94082 4.54697 7.55196 3.82374 7.37673Z" fill="#00B394"/>
<path d="M11.6922 1.42545C10.835 0.510356 9.57609 -0.0542746 8.1765 0.00413547C5.85279 0.0949956 3.96436 1.93816 3.884 4.19668C3.8773 4.34595 3.884 4.48873 3.8907 4.63151C4.05141 7.04579 6.67647 8.74617 8.96 7.33784C10.085 6.6499 10.2524 6.31891 10.681 3.95006C11.3373 7.54552 11.3842 7.59744 15.0941 8.22697C11.3842 8.86299 11.3306 8.90842 10.681 12.5039C10.2524 10.135 10.0783 9.81053 8.96 9.1161C6.66977 7.70777 4.05141 9.41464 3.8907 11.8224C3.884 11.9652 3.8773 12.1145 3.884 12.2573C3.96436 14.5158 5.84609 16.359 8.1765 16.4498C9.56939 16.5082 10.835 15.9436 11.6922 15.022L18.7169 8.21399L11.6922 1.42545Z" fill="#00B394"/>
<path d="M10.547 9.37573C11.1979 9.37573 11.7256 8.86433 11.7256 8.23349C11.7256 7.60265 11.1979 7.09125 10.547 7.09125C9.89608 7.09125 9.36841 7.60265 9.36841 8.23349C9.36841 8.86433 9.89608 9.37573 10.547 9.37573Z" fill="#00B394"/>
<path d="M36.473 0.834534L37.1378 2.72904L39.0844 3.37599L37.1378 4.02294L36.473 5.91745L35.8083 4.02294L33.8617 3.37599L35.8083 2.72904L36.473 0.834534Z" fill="white"/>
<path d="M83.3821 0.834534L84.0468 2.72904L85.9934 3.37599L84.0468 4.02294L83.3821 5.91745L82.7173 4.02294L80.7708 3.37599L82.7173 2.72904L83.3821 0.834534Z" fill="white"/>
</svg>
